<svg width="24" height="24" viewBox="0 0 24 24" fill="none" xmlns="http://www.w3.org/2000/svg">
<g clip-path="url(#clip0_344_278)">
<path d="M14.6358 9.97815L9.98193 14.6408C10.621 15.1309 11.4159 15.3718 12.219 15.3187C13.022 15.2656 13.7784 14.9221 14.3476 14.3521C14.9166 13.7818 15.2594 13.0239 15.3124 12.2194C15.3654 11.4148 15.125 10.6184 14.6358 9.97815Z" fill="#151C39"/>
<path d="M12.436 0.00756836V5.19666C14.1633 5.30789 15.7836 6.07372 16.9677 7.33858C18.1519 8.60344 18.811 10.2725 18.8113 12.0066C18.8114 13.7409 18.1525 15.4102 16.9682 16.6751C15.784 17.9401 14.1635 18.7058 12.436 18.8166V24.0076C15.5392 23.8962 18.4784 22.5833 20.6351 20.345C22.7919 18.1068 23.9981 15.1177 24 12.0066C23.9985 8.89559 22.7924 5.90645 20.6355 3.66841C18.4787 1.43037 15.5392 0.118013 12.436 0.00756836Z" fill="#151C39"/>
<path d="M5.18685 11.9991C5.18712 10.2649 5.84626 8.59589 7.03038 7.33103C8.2145 6.06617 9.83479 5.30034 11.5621 5.18911V0.00756836C8.45922 0.118491 5.52029 1.43107 3.3638 3.66906C1.2073 5.90704 0.00143954 8.89591 0 12.0066C0.00189238 15.1174 1.20784 18.1062 3.36419 20.3444C5.52053 22.5826 8.45921 23.8957 11.5621 24.0076V18.809C9.83479 18.6978 8.2145 17.932 7.03038 16.6671C5.84626 15.4023 5.18712 13.7332 5.18685 11.9991Z" fill="#151C39"/>
<path d="M9.65044 9.646C9.08142 10.2163 8.73867 10.9743 8.68601 11.779C8.63334 12.5837 8.87437 13.3801 9.36419 14.0199L14.0161 9.35918C13.3775 8.86844 12.5826 8.62697 11.7794 8.67974C10.9763 8.7325 10.2197 9.0759 9.65044 9.646Z" fill="#151C39"/>
</g>
<defs>
<clipPath id="clip0_344_278">
<rect width="24" height="24" fill="white"/>
</clipPath>
</defs>
</svg>
