<svg width="608" height="918" viewBox="0 0 608 918" fill="none" xmlns="http://www.w3.org/2000/svg">
<g clip-path="url(#clip0_334_196)">
<path d="M151.459 302.68C191.618 302.68 230.133 286.731 258.53 258.341C286.927 229.951 302.88 191.446 302.88 151.296H0C-6.11272e-07 171.18 3.91787 190.868 11.5298 209.237C19.1418 227.606 30.2988 244.297 44.3635 258.354C58.4283 272.412 75.1252 283.562 93.5008 291.168C111.876 298.773 131.571 302.685 151.459 302.68Z" fill="#A6BDB1"/>
<path d="M303.831 307.685C303.831 347.834 319.784 386.339 348.181 414.729C376.578 443.119 415.093 459.069 455.252 459.069V156.301C415.093 156.301 376.578 172.25 348.181 200.64C319.784 229.03 303.831 267.535 303.831 307.685Z" fill="#A6BDB1"/>
<path d="M227.194 459.081C269.112 459.081 303.093 425.109 303.093 383.202C303.093 341.295 269.112 307.322 227.194 307.322C185.277 307.322 151.296 341.295 151.296 383.202C151.296 425.109 185.277 459.081 227.194 459.081Z" fill="#287C82"/>
<path d="M379.567 156.238C421.484 156.238 455.465 122.266 455.465 80.3586C455.465 38.4514 421.484 4.47894 379.567 4.47894C337.649 4.47894 303.668 38.4514 303.668 80.3586C303.668 122.266 337.649 156.238 379.567 156.238Z" fill="#E4E5E1"/>
<path d="M532.102 302.843C574.019 302.843 608 268.871 608 226.963C608 185.056 574.019 151.084 532.102 151.084C490.184 151.084 456.203 185.056 456.203 226.963C456.203 268.871 490.184 302.843 532.102 302.843Z" fill="#287C82"/>
<path d="M151.459 0H0.0375366C0.0375366 40.1495 15.9908 78.6546 44.3878 107.045C72.7848 135.435 111.299 151.384 151.459 151.384V0Z" fill="#04191B"/>
<path d="M151.459 151.422H302.88C302.88 111.272 286.927 72.7669 258.53 44.3769C230.133 15.9869 191.618 0.0375366 151.459 0.0375366V151.422Z" fill="#D5D6D7"/>
<path d="M0 458.919H151.421C151.421 439.039 147.505 419.353 139.895 400.987C132.285 382.62 121.132 365.931 107.071 351.874C93.0102 337.817 76.3177 326.666 57.9464 319.058C39.5751 311.45 19.8849 307.535 0 307.535V458.919Z" fill="#A6BDB1"/>
<path d="M607.662 458.919V307.535C567.503 307.535 528.988 323.484 500.591 351.874C472.194 380.264 456.241 418.769 456.241 458.919H607.662Z" fill="#04191B"/>
<path d="M607.662 4.65411H456.241C456.241 44.8036 472.194 83.3087 500.591 111.699C528.988 140.089 567.503 156.038 607.662 156.038V4.65411Z" fill="#04191B"/>
<path d="M304.169 766.578C304.169 786.458 300.252 806.144 292.643 824.511C285.033 842.877 273.879 859.566 259.819 873.623C245.758 887.68 229.065 898.831 210.694 906.439C192.323 914.047 172.633 917.962 152.748 917.962V615.157C172.636 615.157 192.329 619.074 210.703 626.684C229.077 634.294 245.771 645.448 259.832 659.51C273.893 673.571 285.046 690.264 292.653 708.635C300.261 727.006 304.174 746.695 304.169 766.578Z" fill="#04191B"/>
<path d="M380.806 918C422.723 918 456.704 884.028 456.704 842.12C456.704 800.213 422.723 766.241 380.806 766.241C338.888 766.241 304.907 800.213 304.907 842.12C304.907 884.028 338.888 918 380.806 918Z" fill="#287C82"/>
<path d="M228.433 615.157C270.351 615.157 304.332 581.185 304.332 539.277C304.332 497.37 270.351 463.398 228.433 463.398C186.516 463.398 152.535 497.37 152.535 539.277C152.535 581.185 186.516 615.157 228.433 615.157Z" fill="#287C82"/>
<path d="M75.8983 761.762C117.816 761.762 151.797 727.789 151.797 685.882C151.797 643.975 117.816 610.002 75.8983 610.002C33.9808 610.002 0 643.975 0 685.882C0 727.789 33.9808 761.762 75.8983 761.762Z" fill="#E4E5E1"/>
<path d="M608 610.34H456.579C456.579 570.191 472.532 531.686 500.929 503.295C529.326 474.905 567.841 458.956 608 458.956V610.34Z" fill="#A6BDB1"/>
<path d="M456.541 458.919V610.303C416.382 610.303 377.867 594.353 349.47 565.963C321.073 537.573 305.12 499.068 305.12 458.919H456.541Z" fill="#E4E5E1"/>
<path d="M608 917.837H456.579C456.579 877.688 472.532 839.183 500.929 810.793C529.326 782.403 567.841 766.453 608 766.453V917.837Z" fill="#04191B"/>
<path d="M0.362915 917.837V766.453C40.5223 766.453 79.0369 782.403 107.434 810.793C135.831 839.183 151.784 877.688 151.784 917.837H0.362915Z" fill="#04191B"/>
<path d="M456.203 764.001V612.617C496.363 612.617 534.877 628.567 563.274 656.957C591.671 685.347 607.625 723.852 607.625 764.001H456.203Z" fill="#A6BDB1"/>
<path d="M151.784 458.831V610.215C111.625 610.215 73.1101 594.266 44.7132 565.876C16.3162 537.486 0.362915 498.981 0.362915 458.831H151.784Z" fill="#04191B"/>
<path d="M303.831 612.58H455.252C455.252 652.729 439.299 691.234 410.902 719.624C382.505 748.014 343.99 763.964 303.831 763.964V612.58Z" fill="#287C82"/>
</g>
<defs>
<clipPath id="clip0_334_196">
<rect width="608" height="918" fill="white"/>
</clipPath>
</defs>
</svg>
