<svg width="455" height="128" viewBox="0 0 455 128" fill="none" xmlns="http://www.w3.org/2000/svg">
<path d="M35.7073 120.748V117.719H40.0667C40.6372 117.719 41.1543 117.601 41.6179 117.365C42.0814 117.128 42.4469 116.792 42.7144 116.355C42.9818 115.9 43.1156 115.355 43.1156 114.718C43.1156 114.1 42.9818 113.563 42.7144 113.108C42.4469 112.654 42.0814 112.308 41.6179 112.072C41.1543 111.835 40.6372 111.717 40.0667 111.717H35.7073V108.689H40.4411C41.6357 108.689 42.7055 108.934 43.6505 109.425C44.6133 109.916 45.371 110.617 45.9238 111.526C46.4765 112.417 46.7529 113.481 46.7529 114.718C46.7529 115.955 46.4765 117.028 45.9238 117.938C45.371 118.829 44.6133 119.52 43.6505 120.011C42.7055 120.502 41.6357 120.748 40.4411 120.748H35.7073ZM33.0328 127.869V108.689H36.6701V127.869H33.0328Z" fill="#526061"/>
<path d="M65.3773 119.848V116.955H69.7367C70.6282 116.955 71.3146 116.728 71.796 116.273C72.2952 115.8 72.5449 115.155 72.5449 114.336C72.5449 113.59 72.2952 112.972 71.796 112.481C71.3146 111.972 70.6282 111.717 69.7367 111.717H65.3773V108.689H70.0576C71.27 108.689 72.3309 108.934 73.2402 109.425C74.1674 109.898 74.8806 110.553 75.3798 111.39C75.8969 112.226 76.1554 113.19 76.1554 114.282C76.1554 115.409 75.8969 116.392 75.3798 117.228C74.8806 118.047 74.1674 118.693 73.2402 119.165C72.3131 119.62 71.2344 119.848 70.0041 119.848H65.3773ZM62.7028 127.869V108.689H66.3401V127.869H62.7028ZM72.9728 127.869L66.768 119.575L70.1111 118.511L77.3857 127.869H72.9728Z" fill="#526061"/>
<path d="M92.8168 127.869V108.689H96.4541V127.869H92.8168Z" fill="#526061"/>
<path d="M119.703 127.869L112.294 108.689H116.226L121.949 124.213H120.425L126.202 108.689H130.08L122.591 127.869H119.703Z" fill="#526061"/>
<path d="M142.069 127.869L149.638 108.689H152.606L160.148 127.869H156.27L150.44 112.126H151.777L145.867 127.869H142.069ZM146.081 124.295V121.184H156.19V124.295H146.081Z" fill="#526061"/>
<path d="M178.175 127.869V109.098H181.839V127.869H178.175ZM172.184 111.99V108.689H187.83V111.99H172.184Z" fill="#526061"/>
<path d="M203.714 127.869V108.689H207.351V127.869H203.714ZM206.388 127.869V124.595H216.792V127.869H206.388ZM206.388 119.657V116.492H215.856V119.657H206.388ZM206.388 111.963V108.689H216.658V111.963H206.388Z" fill="#526061"/>
<path d="M256.531 127.869L250.433 108.689H254.017L258.537 123.449H257.334L261.773 108.689H264.474L268.914 123.449H267.684L272.23 108.689H275.814L269.69 127.869H266.989L262.522 113.136H263.699L259.259 127.869H256.531Z" fill="#526061"/>
<path d="M291.679 127.869V108.689H295.316V127.869H291.679ZM294.353 127.869V124.595H304.757V127.869H294.353ZM294.353 119.657V116.492H303.821V119.657H294.353ZM294.353 111.963V108.689H304.623V111.963H294.353Z" fill="#526061"/>
<path d="M319.749 127.869L327.318 108.689H330.287L337.829 127.869H333.951L328.12 112.126H329.458L323.547 127.869H319.749ZM323.761 124.295V121.184H333.871V124.295H323.761Z" fill="#526061"/>
<path d="M353.422 127.869V108.689H357.059V127.869H353.422ZM356.096 127.869V124.568H365.671V127.869H356.096Z" fill="#526061"/>
<path d="M384.193 127.869V109.098H387.857V127.869H384.193ZM378.203 111.99V108.689H393.848V111.99H378.203Z" fill="#526061"/>
<path d="M409.732 127.869V108.689H413.369V127.869H409.732ZM421.527 127.869V108.689H425.164V127.869H421.527ZM412.032 119.602V116.328H422.543V119.602H412.032Z" fill="#526061"/>
<path d="M7.45905 47.9494V45.0151C8.93007 44.9261 9.97762 44.6149 10.6017 44.0814C11.2703 43.5479 11.6938 42.7476 11.8721 41.6806C12.0504 40.6136 12.1396 39.2576 12.1396 37.6126V9.86997C12.1396 8.89186 12.1619 7.95822 12.2065 7.06903C12.251 6.13539 12.2956 5.33512 12.3402 4.66823C11.5824 4.71269 10.7577 4.75715 9.86618 4.80161C8.97465 4.84607 8.17227 4.89053 7.45905 4.93499V1.26709H23.9078V4.20141C22.4814 4.24587 21.4338 4.55708 20.7652 5.13505C20.0965 5.66856 19.673 6.46883 19.4947 7.53586C19.3164 8.55842 19.2273 9.91443 19.2273 11.6039V22.4742H41.3596V9.86997C41.3596 8.89186 41.3819 7.95822 41.4264 7.06903C41.471 6.13539 41.5156 5.33512 41.5602 4.66823C40.8024 4.71269 39.9777 4.75715 39.0862 4.80161C38.1946 4.84607 37.3922 4.89053 36.679 4.93499V1.26709H53.1278V4.20141C51.7013 4.24587 50.6538 4.55708 49.9851 5.13505C49.3165 5.66856 48.893 6.46883 48.7147 7.53586C48.5364 8.55842 48.4472 9.91443 48.4472 11.6039V39.013C48.4472 40.2134 48.425 41.3027 48.3804 42.2808C48.3804 43.2145 48.3358 43.9703 48.2467 44.5482C49.0045 44.4593 49.8291 44.4149 50.7207 44.4149C51.6122 44.3704 52.4146 44.3259 53.1278 44.2815V47.9494H36.679V45.0151C38.15 44.9261 39.1976 44.6149 39.8217 44.0814C40.4903 43.5479 40.9138 42.7476 41.0921 41.6806C41.2704 40.6136 41.3596 39.2576 41.3596 37.6126V25.942L19.2273 26.1421V39.013C19.2273 40.2134 19.205 41.3027 19.1604 42.2808C19.1604 43.2145 19.1158 43.9703 19.0267 44.5482C19.7845 44.4593 20.6091 44.4149 21.5007 44.4149C22.4368 44.3704 23.2392 44.3259 23.9078 44.2815V47.9494H7.45905Z" fill="#0A3437"/>
<path d="M92.5311 49.0164C88.2963 49.0164 84.6633 48.305 81.6321 46.8823C78.6455 45.4597 76.216 43.5701 74.3438 41.2138C72.4716 38.813 71.0897 36.1677 70.1982 33.2778C69.3067 30.3879 68.8609 27.4981 68.8609 24.6082C68.8609 21.8073 69.329 18.9841 70.2651 16.1387C71.2457 13.2489 72.6945 10.6035 74.6113 8.20275C76.5727 5.80194 79.0021 3.86796 81.8996 2.4008C84.8416 0.933647 88.274 0.200068 92.1968 0.200068C96.2978 0.200068 99.8194 0.933647 102.761 2.4008C105.748 3.86796 108.2 5.82417 110.117 8.26943C112.033 10.6702 113.46 13.2933 114.396 16.1387C115.377 18.9841 115.867 21.8073 115.867 24.6082C115.867 27.3647 115.377 30.1879 114.396 33.0777C113.46 35.9231 112.011 38.5685 110.05 41.0137C108.133 43.4145 105.726 45.3485 102.828 46.8157C99.9308 48.2828 96.4984 49.0164 92.5311 49.0164ZM92.8654 45.5486C95.4509 45.5486 97.6797 44.9706 99.5519 43.8147C101.469 42.6587 103.029 41.1249 104.232 39.2131C105.481 37.2569 106.394 35.1229 106.974 32.811C107.553 30.4546 107.843 28.1205 107.843 25.8086C107.843 22.9632 107.509 20.229 106.84 17.6059C106.172 14.9383 105.146 12.5598 103.764 10.4702C102.427 8.33612 100.755 6.6689 98.7495 5.4685C96.7436 4.22364 94.4256 3.60121 91.7956 3.60121C89.2101 3.60121 86.959 4.20141 85.0422 5.40181C83.1254 6.60221 81.5652 8.18052 80.3617 10.1367C79.1581 12.0485 78.2443 14.1825 77.6202 16.5389C77.0407 18.8508 76.751 21.1849 76.751 23.5412C76.751 25.8531 77.063 28.2984 77.6871 30.877C78.3111 33.4556 79.2695 35.8564 80.5623 38.0794C81.855 40.3024 83.5043 42.103 85.5103 43.4812C87.5608 44.8594 90.0125 45.5486 92.8654 45.5486Z" fill="#0A3437"/>
<path d="M131.538 47.9494V45.0151C133.009 44.9261 134.056 44.6149 134.681 44.0814C135.349 43.5479 135.773 42.7476 135.951 41.6806C136.129 40.6136 136.218 39.2576 136.218 37.6126V9.86997C136.218 8.89186 136.241 7.95822 136.285 7.06903C136.33 6.13539 136.374 5.33512 136.419 4.66823C135.661 4.71269 134.837 4.75715 133.945 4.80161C133.053 4.84607 132.251 4.89053 131.538 4.93499V1.26709H147.987V4.20141C146.56 4.24587 145.513 4.55708 144.844 5.13505C144.175 5.66856 143.752 6.46883 143.574 7.53586C143.395 8.55842 143.306 9.91443 143.306 11.6039V39.2131C143.306 40.4135 143.284 41.4805 143.239 42.4142C143.239 43.3034 143.195 44.037 143.106 44.6149L154.406 44.4815C157.169 44.4371 159.287 43.5479 160.758 41.814C162.229 40.0356 162.964 37.2347 162.964 33.4112H165.973L165.572 47.9494H131.538Z" fill="#0A3437"/>
<path d="M180.812 47.9494V45.0151C182.283 44.9261 183.33 44.6149 183.954 44.0814C184.623 43.5479 185.046 42.7476 185.225 41.6806C185.403 40.6136 185.492 39.2576 185.492 37.6126V9.86997C185.492 8.89186 185.514 7.95822 185.559 7.06903C185.604 6.13539 185.648 5.33512 185.693 4.66823C184.935 4.71269 184.11 4.75715 183.219 4.80161C182.327 4.84607 181.525 4.89053 180.812 4.93499V1.26709H197.26V4.20141C195.834 4.24587 194.786 4.55708 194.118 5.13505C193.449 5.66856 193.026 6.46883 192.847 7.53586C192.669 8.55842 192.58 9.91443 192.58 11.6039V39.2131C192.58 40.4135 192.558 41.4805 192.513 42.4142C192.513 43.3034 192.468 44.037 192.379 44.6149L203.679 44.4815C206.443 44.4371 208.561 43.5479 210.032 41.814C211.503 40.0356 212.238 37.2347 212.238 33.4112H215.247L214.846 47.9494H180.812Z" fill="#0A3437"/>
<path d="M252.171 49.0164C247.936 49.0164 244.303 48.305 241.272 46.8823C238.285 45.4597 235.856 43.5701 233.984 41.2138C232.112 38.813 230.73 36.1677 229.838 33.2778C228.947 30.3879 228.501 27.4981 228.501 24.6082C228.501 21.8073 228.969 18.9841 229.905 16.1387C230.886 13.2489 232.334 10.6035 234.251 8.20275C236.213 5.80194 238.642 3.86796 241.54 2.4008C244.482 0.933647 247.914 0.200068 251.837 0.200068C255.938 0.200068 259.459 0.933647 262.401 2.4008C265.388 3.86796 267.84 5.82417 269.757 8.26943C271.673 10.6702 273.1 13.2933 274.036 16.1387C275.017 18.9841 275.507 21.8073 275.507 24.6082C275.507 27.3647 275.017 30.1879 274.036 33.0777C273.1 35.9231 271.651 38.5685 269.69 41.0137C267.773 43.4145 265.366 45.3485 262.468 46.8157C259.571 48.2828 256.138 49.0164 252.171 49.0164ZM252.505 45.5486C255.091 45.5486 257.32 44.9706 259.192 43.8147C261.109 42.6587 262.669 41.1249 263.872 39.2131C265.121 37.2569 266.034 35.1229 266.614 32.811C267.193 30.4546 267.483 28.1205 267.483 25.8086C267.483 22.9632 267.149 20.229 266.48 17.6059C265.812 14.9383 264.786 12.5598 263.404 10.4702C262.067 8.33612 260.395 6.6689 258.39 5.4685C256.384 4.22364 254.066 3.60121 251.436 3.60121C248.85 3.60121 246.599 4.20141 244.682 5.40181C242.765 6.60221 241.205 8.18052 240.002 10.1367C238.798 12.0485 237.884 14.1825 237.26 16.5389C236.681 18.8508 236.391 21.1849 236.391 23.5412C236.391 25.8531 236.703 28.2984 237.327 30.877C237.951 33.4556 238.91 35.8564 240.202 38.0794C241.495 40.3024 243.144 42.103 245.15 43.4812C247.201 44.8594 249.653 45.5486 252.505 45.5486Z" fill="#0A3437"/>
<path d="M305.899 48.5496L293.997 12.871C293.329 10.8703 292.794 9.24754 292.392 8.00268C292.036 6.75782 291.791 5.69079 291.657 4.80161C290.944 4.84607 290.275 4.8683 289.651 4.8683C289.027 4.8683 288.403 4.89053 287.779 4.93499V1.26709H305.164V4.20141C302.89 4.29032 301.441 4.77938 300.817 5.66856C300.238 6.55775 300.283 8.2472 300.951 10.7369C301.709 13.5379 302.489 16.1387 303.291 18.5395C304.094 20.9403 304.896 23.4745 305.699 26.1421C306.233 27.9649 306.768 29.6766 307.303 31.2771C307.883 32.8332 308.462 34.656 309.042 36.7456H309.109C309.332 36.0343 309.577 35.1895 309.844 34.2114C310.156 33.2333 310.468 32.233 310.78 31.2104C311.092 30.1434 311.382 29.1875 311.65 28.3428C311.917 27.4536 312.118 26.7867 312.251 26.3421C313.321 22.9632 314.369 19.651 315.394 16.4055C316.464 13.16 317.422 10.2256 318.269 7.60254C319.116 4.97944 319.762 2.8454 320.208 1.2004H323.685C324.131 2.8454 324.71 4.77938 325.424 7.00234C326.182 9.18085 326.939 11.4483 327.697 13.8046C328.455 16.1165 329.19 18.3617 329.904 20.5402C330.617 22.6743 331.219 24.5415 331.709 26.1421C332.289 27.9649 332.868 29.81 333.448 31.6773C334.072 33.5001 334.629 35.3896 335.119 37.3458H335.253C335.654 36.012 336.078 34.6116 336.523 33.1444C337.014 31.6328 337.482 30.099 337.927 28.5429C338.819 25.9642 339.555 23.7413 340.134 21.874C340.758 20.0067 341.271 18.3839 341.672 17.0057C342.073 15.6274 342.43 14.3826 342.742 13.2711C343.098 12.1596 343.455 11.0704 343.812 10.0033C344.079 9.15862 344.391 8.26944 344.748 7.33579C345.104 6.35768 345.55 5.49073 346.085 4.73492C345.238 4.77938 344.324 4.82384 343.344 4.8683C342.407 4.8683 341.56 4.89053 340.803 4.93499V1.26709H354.844V4.20141C353.507 4.33478 352.393 4.646 351.501 5.13505C350.654 5.6241 349.896 6.49106 349.228 7.73592C348.559 8.93632 347.801 10.7369 346.954 13.1377C344.993 19.1397 343.054 25.0751 341.137 30.9437C339.265 36.8123 337.326 42.6809 335.32 48.5496H331.976L322.615 21.2738C322.125 19.94 321.679 18.6285 321.278 17.3391C320.921 16.0054 320.565 14.716 320.208 13.4712C319.896 14.716 319.562 15.9609 319.205 17.2058C318.849 18.4062 318.47 19.6288 318.069 20.8736L309.176 48.5496H305.899Z" fill="#0A3437"/>
<path d="M360.476 47.9494V44.9484C361.813 44.9484 362.838 44.5927 363.551 43.8813C364.265 43.17 364.866 42.2141 365.357 41.0137C365.847 39.7689 366.382 38.3906 366.961 36.879L380.468 0H383.143L397.786 37.4125C398.143 38.2572 398.544 39.4132 398.99 40.8803C399.436 42.303 399.636 43.5257 399.592 44.5482C400.349 44.4593 401.085 44.4149 401.798 44.4149C402.556 44.3704 403.269 44.3259 403.938 44.2815V47.9494H387.69V45.0151C389.25 44.9706 390.275 44.6372 390.765 44.0147C391.3 43.3478 391.501 42.5476 391.367 41.6139C391.278 40.6803 391.055 39.7466 390.699 38.813L388.693 33.4112L372.311 33.8113L370.372 39.6132C370.104 40.5024 369.814 41.3472 369.502 42.1474C369.19 42.9477 368.878 43.7257 368.566 44.4815C369.369 44.3926 370.216 44.3482 371.107 44.3482C372.043 44.3037 372.868 44.2592 373.581 44.2148V47.9494H360.476ZM373.514 30.2101H387.556L383.343 18.9397C382.808 17.4725 382.296 16.0276 381.805 14.6049C381.315 13.1377 380.869 11.7373 380.468 10.4035H380.401C380.045 11.515 379.644 12.7376 379.198 14.0714C378.752 15.4052 378.239 16.8501 377.66 18.4062L373.514 30.2101Z" fill="#0A3437"/>
<path d="M424.581 47.9494V45.0151C426.052 44.9261 427.099 44.6149 427.723 44.0814C428.347 43.5479 428.749 42.7476 428.927 41.6806C429.105 40.5691 429.194 39.2131 429.194 37.6126L429.261 30.6102L417.359 11.9373C416.423 10.3813 415.665 9.00301 415.086 7.80261C414.551 6.60221 414.239 5.60188 414.15 4.80161C413.437 4.84607 412.768 4.8683 412.144 4.8683C411.52 4.8683 410.896 4.89053 410.272 4.93499V1.26709H428.325V4.20141C426.542 4.15695 425.227 4.40148 424.38 4.93499C423.578 5.4685 423.221 6.24654 423.31 7.2691C423.399 8.24721 423.845 9.40315 424.648 10.7369L429.93 19.1397C430.287 19.6732 430.688 20.2957 431.133 21.007C431.579 21.7184 432.025 22.452 432.471 23.2078C432.961 23.9191 433.407 24.6527 433.808 25.4085H433.942C434.343 24.5638 434.789 23.6746 435.279 22.7409C435.814 21.7628 436.349 20.6958 436.884 19.5399L441.832 10.1367C442.055 9.69213 442.345 9.13639 442.701 8.4695C443.058 7.80261 443.437 7.13572 443.838 6.46883C444.284 5.75748 444.729 5.17951 445.175 4.73492C444.373 4.77938 443.481 4.82384 442.501 4.8683C441.564 4.8683 440.717 4.89053 439.96 4.93499V1.26709H453.934V4.20141C451.973 4.37924 450.324 5.11282 448.986 6.40214C447.694 7.647 446.312 9.62544 444.841 12.3375C443.37 15.1384 441.921 17.8949 440.495 20.6069C439.068 23.2745 437.686 25.8976 436.349 28.4762C436.349 29.1875 436.327 30.099 436.282 31.2104C436.282 32.3219 436.282 33.4334 436.282 34.5449C436.282 35.6564 436.282 36.6345 436.282 37.4792C436.282 38.2795 436.282 38.7908 436.282 39.013C436.282 40.2134 436.26 41.3027 436.215 42.2808C436.215 43.2145 436.171 43.9703 436.082 44.5482C436.973 44.4593 437.909 44.4149 438.89 44.4149C439.915 44.3704 440.807 44.3259 441.564 44.2815V47.9494H424.581Z" fill="#0A3437"/>
<path fill-rule="evenodd" clip-rule="evenodd" d="M455 77.7869H0V74.5901H455V77.7869Z" fill="#053C6F"/>
</svg>
