<svg width="455" height="128" viewBox="0 0 455 128" fill="none" xmlns="http://www.w3.org/2000/svg">
<path d="M35.3557 120.922V117.912H39.7155C40.2861 117.912 40.8032 117.795 41.2668 117.56C41.7305 117.325 42.096 116.99 42.3635 116.556C42.631 116.104 42.7647 115.562 42.7647 114.929C42.7647 114.314 42.631 113.781 42.3635 113.329C42.096 112.877 41.7305 112.534 41.2668 112.299C40.8032 112.064 40.2861 111.946 39.7155 111.946H35.3557V108.936H40.09C41.2847 108.936 42.3546 109.18 43.2996 109.668C44.2626 110.156 45.0204 110.852 45.5732 111.756C46.126 112.642 46.4024 113.7 46.4024 114.929C46.4024 116.158 46.126 117.225 45.5732 118.129C45.0204 119.015 44.2626 119.702 43.2996 120.19C42.3546 120.678 41.2847 120.922 40.09 120.922H35.3557ZM32.6809 128V108.936H36.3186V128H32.6809Z" fill="#D9D9D9"/>
<path d="M65.0286 120.027V117.153H69.3885C70.28 117.153 70.9666 116.927 71.448 116.475C71.9473 116.005 72.1969 115.363 72.1969 114.549C72.1969 113.808 71.9473 113.194 71.448 112.705C70.9666 112.199 70.28 111.946 69.3885 111.946H65.0286V108.936H69.7094C70.922 108.936 71.983 109.18 72.8924 109.668C73.8196 110.138 74.5329 110.789 75.0322 111.621C75.5493 112.452 75.8078 113.411 75.8078 114.495C75.8078 115.616 75.5493 116.592 75.0322 117.424C74.5329 118.238 73.8196 118.879 72.8924 119.349C71.9651 119.801 70.8863 120.027 69.6559 120.027H65.0286ZM62.3539 128V108.936H65.9915V128H62.3539ZM72.6249 128L66.4195 119.756L69.7629 118.699L77.0382 128H72.6249Z" fill="#D9D9D9"/>
<path d="M92.4709 128V108.936H96.1085V128H92.4709Z" fill="#D9D9D9"/>
<path d="M119.359 128L111.95 108.936H115.882L121.606 124.366H120.082L125.859 108.936H129.737L122.248 128H119.359Z" fill="#D9D9D9"/>
<path d="M141.728 128L149.297 108.936H152.266L159.809 128H155.931L150.1 112.353H151.437L145.526 128H141.728ZM145.74 124.447V121.356H155.85V124.447H145.74Z" fill="#D9D9D9"/>
<path d="M177.837 128V109.343H181.502V128H177.837ZM171.846 112.217V108.936H187.493V112.217H171.846Z" fill="#D9D9D9"/>
<path d="M203.379 128V108.936H207.016V128H203.379ZM206.054 128V124.746H216.458V128H206.054ZM206.054 119.837V116.692H215.522V119.837H206.054ZM206.054 112.19V108.936H216.325V112.19H206.054Z" fill="#D9D9D9"/>
<path d="M256.202 128L250.103 108.936H253.687L258.208 123.607H257.004L261.444 108.936H264.146L268.586 123.607H267.355L271.902 108.936H275.487L269.361 128H266.66L262.193 113.356H263.37L258.93 128H256.202Z" fill="#D9D9D9"/>
<path d="M291.353 128V108.936H294.991V128H291.353ZM294.028 128V124.746H304.432V128H294.028ZM294.028 119.837V116.692H303.496V119.837H294.028ZM294.028 112.19V108.936H304.299V112.19H294.028Z" fill="#D9D9D9"/>
<path d="M319.426 128L326.996 108.936H329.965L337.507 128H333.629L327.798 112.353H329.135L323.224 128H319.426ZM323.438 124.447V121.356H333.549V124.447H323.438Z" fill="#D9D9D9"/>
<path d="M353.102 128V108.936H356.74V128H353.102ZM355.777 128V124.719H365.352V128H355.777Z" fill="#D9D9D9"/>
<path d="M383.877 128V109.343H387.541V128H383.877ZM377.885 112.217V108.936H393.532V112.217H377.885Z" fill="#D9D9D9"/>
<path d="M409.418 128V108.936H413.056V128H409.418ZM421.213 128V108.936H424.851V128H421.213ZM411.718 119.783V116.529H422.23V119.783H411.718Z" fill="#D9D9D9"/>
<path d="M8.17023 47.9541V45.0195C9.64179 44.9306 10.6897 44.6194 11.314 44.0858C11.9829 43.5522 12.4066 42.7519 12.5849 41.6848C12.7633 40.6176 12.8525 39.2615 12.8525 37.6163V9.87095C12.8525 8.89275 12.8748 7.95901 12.9194 7.06974C12.964 6.136 13.0086 5.33565 13.0531 4.66869C12.2951 4.71316 11.4701 4.75762 10.5782 4.80209C9.68638 4.84655 8.88371 4.89101 8.17023 4.93548V1.26722H24.625V4.20183C23.198 4.24629 22.1501 4.55754 21.4812 5.13557C20.8123 5.66913 20.3887 6.46948 20.2103 7.53661C20.0319 8.55927 19.9427 9.91542 19.9427 11.605V22.4764H42.0831V9.87095C42.0831 8.89275 42.1054 7.95901 42.15 7.06974C42.1946 6.136 42.2392 5.33565 42.2838 4.66869C41.5257 4.71316 40.7007 4.75762 39.8089 4.80209C38.917 4.84655 38.1143 4.89101 37.4009 4.93548V1.26722H53.8556V4.20183C52.4287 4.24629 51.3807 4.55754 50.7118 5.13557C50.0429 5.66913 49.6193 6.46948 49.4409 7.53661C49.2626 8.55927 49.1734 9.91542 49.1734 11.605V39.0169C49.1734 40.2175 49.1511 41.3068 49.1065 42.285C49.1065 43.2188 49.0619 43.9746 48.9727 44.5527C49.7308 44.4637 50.5558 44.4193 51.4476 44.4193C52.3395 44.3748 53.1421 44.3304 53.8556 44.2859V47.9541H37.4009V45.0195C38.8724 44.9306 39.9204 44.6194 40.5447 44.0858C41.2136 43.5522 41.6372 42.7519 41.8156 41.6848C41.9939 40.6176 42.0831 39.2615 42.0831 37.6163V25.9446L19.9427 26.1447V39.0169C19.9427 40.2175 19.9205 41.3068 19.8759 42.285C19.8759 43.2188 19.8313 43.9746 19.7421 44.5527C20.5002 44.4637 21.3251 44.4193 22.217 44.4193C23.1534 44.3748 23.9561 44.3304 24.625 44.2859V47.9541H8.17023Z" fill="white"/>
<path d="M93.2733 49.0213C89.037 49.0213 85.4027 48.3099 82.3703 46.887C79.3826 45.4642 76.9523 43.5745 75.0794 41.2179C73.2065 38.8168 71.8241 36.1713 70.9323 33.2811C70.0404 30.391 69.5945 27.5008 69.5945 24.6107C69.5945 21.8095 70.0627 18.986 70.9992 16.1403C71.9802 13.2502 73.4295 10.6046 75.347 8.20356C77.309 5.80252 79.7394 3.86835 82.6379 2.40104C85.581 0.93374 89.0147 0.200088 92.9389 0.200088C97.0414 0.200088 100.564 0.93374 103.507 2.40104C106.495 3.86835 108.948 5.82475 110.865 8.27026C112.783 10.6713 114.21 13.2947 115.146 16.1403C116.127 18.986 116.618 21.8095 116.618 24.6107C116.618 27.3674 116.127 30.1909 115.146 33.081C114.21 35.9267 112.76 38.5723 110.798 41.0178C108.881 43.4188 106.473 45.353 103.574 46.8203C100.676 48.2876 97.2421 49.0213 93.2733 49.0213ZM93.6077 45.5531C96.1941 45.5531 98.4238 44.9751 100.297 43.819C102.214 42.663 103.775 41.129 104.979 39.217C106.228 37.2606 107.142 35.1264 107.721 32.8142C108.301 30.4577 108.591 28.1233 108.591 25.8112C108.591 22.9655 108.257 20.231 107.588 17.6076C106.919 14.9398 105.893 12.561 104.511 10.4712C103.173 8.33695 101.501 6.66956 99.494 5.46904C97.4873 4.22406 95.1685 3.60157 92.5375 3.60157C89.9511 3.60157 87.6992 4.20183 85.7817 5.40235C83.8642 6.60287 82.3035 8.18133 81.0994 10.1377C79.8954 12.0497 78.9813 14.1839 78.357 16.5405C77.7773 18.8526 77.4874 21.187 77.4874 23.5436C77.4874 25.8557 77.7996 28.3012 78.4239 30.8801C79.0482 33.459 80.0069 35.86 81.3001 38.0832C82.5933 40.3064 84.2432 42.1072 86.2499 43.4855C88.3012 44.8639 90.7538 45.5531 93.6077 45.5531Z" fill="white"/>
<path d="M132.294 47.9541V45.0195C133.766 44.9306 134.814 44.6194 135.438 44.0858C136.107 43.5522 136.531 42.7519 136.709 41.6848C136.887 40.6176 136.977 39.2615 136.977 37.6163V9.87095C136.977 8.89275 136.999 7.95901 137.043 7.06974C137.088 6.136 137.133 5.33565 137.177 4.66869C136.419 4.71316 135.594 4.75762 134.702 4.80209C133.81 4.84655 133.008 4.89101 132.294 4.93548V1.26722H148.749V4.20183C147.322 4.24629 146.274 4.55754 145.605 5.13557C144.936 5.66913 144.513 6.46948 144.334 7.53661C144.156 8.55927 144.067 9.91542 144.067 11.605V39.217C144.067 40.4175 144.045 41.4847 144 42.4184C144 43.3077 143.955 44.0413 143.866 44.6194L155.17 44.486C157.935 44.4415 160.053 43.5522 161.525 41.8182C162.997 40.0396 163.732 37.2384 163.732 33.4145H166.742L166.341 47.9541H132.294Z" fill="white"/>
<path d="M181.586 47.9541V45.0195C183.058 44.9306 184.106 44.6194 184.73 44.0858C185.399 43.5522 185.822 42.7519 186.001 41.6848C186.179 40.6176 186.268 39.2615 186.268 37.6163V9.87095C186.268 8.89275 186.291 7.95901 186.335 7.06974C186.38 6.136 186.424 5.33565 186.469 4.66869C185.711 4.71316 184.886 4.75762 183.994 4.80209C183.102 4.84655 182.299 4.89101 181.586 4.93548V1.26722H198.041V4.20183C196.614 4.24629 195.566 4.55754 194.897 5.13557C194.228 5.66913 193.804 6.46948 193.626 7.53661C193.448 8.55927 193.359 9.91542 193.359 11.605V39.217C193.359 40.4175 193.336 41.4847 193.292 42.4184C193.292 43.3077 193.247 44.0413 193.158 44.6194L204.462 44.486C207.227 44.4415 209.345 43.5522 210.817 41.8182C212.288 40.0396 213.024 37.2384 213.024 33.4145H216.034L215.633 47.9541H181.586Z" fill="white"/>
<path d="M252.972 49.0213C248.735 49.0213 245.101 48.3099 242.069 46.887C239.081 45.4642 236.651 43.5745 234.778 41.2179C232.905 38.8168 231.522 36.1713 230.631 33.2811C229.739 30.391 229.293 27.5008 229.293 24.6107C229.293 21.8095 229.761 18.986 230.697 16.1403C231.678 13.2502 233.128 10.6046 235.045 8.20356C237.007 5.80252 239.438 3.86835 242.336 2.40104C245.279 0.93374 248.713 0.200088 252.637 0.200088C256.74 0.200088 260.263 0.93374 263.206 2.40104C266.193 3.86835 268.646 5.82475 270.563 8.27026C272.481 10.6713 273.908 13.2947 274.844 16.1403C275.825 18.986 276.316 21.8095 276.316 24.6107C276.316 27.3674 275.825 30.1909 274.844 33.081C273.908 35.9267 272.459 38.5723 270.497 41.0178C268.579 43.4188 266.171 45.353 263.273 46.8203C260.374 48.2876 256.94 49.0213 252.972 49.0213ZM253.306 45.5531C255.892 45.5531 258.122 44.9751 259.995 43.819C261.912 42.663 263.473 41.129 264.677 39.217C265.926 37.2606 266.84 35.1264 267.42 32.8142C267.999 30.4577 268.289 28.1233 268.289 25.8112C268.289 22.9655 267.955 20.231 267.286 17.6076C266.617 14.9398 265.591 12.561 264.209 10.4712C262.871 8.33695 261.199 6.66956 259.192 5.46904C257.186 4.22406 254.867 3.60157 252.236 3.60157C249.649 3.60157 247.397 4.20183 245.48 5.40235C243.562 6.60287 242.002 8.18133 240.798 10.1377C239.594 12.0497 238.68 14.1839 238.055 16.5405C237.476 18.8526 237.186 21.187 237.186 23.5436C237.186 25.8557 237.498 28.3012 238.122 30.8801C238.746 33.459 239.705 35.86 240.998 38.0832C242.292 40.3064 243.941 42.1072 245.948 43.4855C247.999 44.8639 250.452 45.5531 253.306 45.5531Z" fill="white"/>
<path d="M306.719 48.5544L294.813 12.8723C294.144 10.8714 293.609 9.24846 293.208 8.00348C292.851 6.75849 292.606 5.69136 292.472 4.80209C291.758 4.84655 291.089 4.86878 290.465 4.86878C289.841 4.86878 289.217 4.89101 288.592 4.93548V1.26722H305.983V4.20183C303.709 4.29075 302.26 4.77985 301.636 5.66913C301.056 6.5584 301.101 8.24803 301.769 10.738C302.527 13.5392 303.308 16.1403 304.111 18.5414C304.913 20.9424 305.716 23.4769 306.519 26.1447C307.054 27.9677 307.589 29.6796 308.124 31.2802C308.704 32.8365 309.283 34.6595 309.863 36.7493H309.93C310.153 36.0379 310.398 35.1931 310.666 34.2149C310.978 33.2367 311.29 32.2362 311.602 31.2135C311.914 30.1464 312.204 29.1904 312.472 28.3456C312.739 27.4564 312.94 26.7894 313.074 26.3448C314.144 22.9655 315.192 19.653 316.218 16.4071C317.288 13.1613 318.246 10.2267 319.094 7.6033C319.941 4.97994 320.588 2.84568 321.034 1.20052H324.512C324.958 2.84568 325.537 4.77985 326.251 7.00304C327.009 9.18177 327.767 11.4494 328.525 13.806C329.283 16.1181 330.019 18.3635 330.732 20.5423C331.446 22.6765 332.048 24.544 332.538 26.1447C333.118 27.9677 333.698 29.8129 334.278 31.6804C334.902 33.5034 335.459 35.3931 335.95 37.3495H336.084C336.485 36.0156 336.909 34.615 337.355 33.1477C337.845 31.636 338.313 30.102 338.759 28.5457C339.651 25.9668 340.387 23.7436 340.967 21.8762C341.591 20.0087 342.104 18.3858 342.505 17.0074C342.906 15.629 343.263 14.384 343.575 13.2724C343.932 12.1608 344.289 11.0715 344.645 10.0043C344.913 9.15953 345.225 8.27026 345.582 7.33652C345.939 6.35832 346.385 5.49127 346.92 4.73539C346.072 4.77986 345.158 4.82432 344.177 4.86878C343.241 4.86878 342.394 4.89101 341.635 4.93548V1.26722H355.682V4.20183C354.344 4.33522 353.23 4.64646 352.338 5.13557C351.49 5.62467 350.732 6.49171 350.063 7.73669C349.395 8.93721 348.637 10.738 347.789 13.139C345.827 19.1416 343.887 25.0776 341.97 30.9468C340.097 36.816 338.157 42.6852 336.151 48.5544H332.806L323.442 21.2759C322.951 19.942 322.505 18.6303 322.104 17.3409C321.747 16.0069 321.39 14.7175 321.034 13.4725C320.721 14.7175 320.387 15.9625 320.03 17.2075C319.673 18.408 319.294 19.6307 318.893 20.8757L309.997 48.5544H306.719Z" fill="white"/>
<path d="M361.316 47.9541V44.9528C362.653 44.9528 363.679 44.5971 364.392 43.8857C365.106 43.1743 365.708 42.2183 366.198 41.0178C366.689 39.7728 367.224 38.3944 367.804 36.8827L381.315 0H383.991L398.64 37.4162C398.997 38.2611 399.398 39.4171 399.844 40.8844C400.29 42.3073 400.49 43.53 400.446 44.5527C401.204 44.4637 401.94 44.4193 402.653 44.4193C403.411 44.3748 404.125 44.3304 404.794 44.2859V47.9541H388.539V45.0195C390.1 44.9751 391.126 44.6416 391.616 44.0191C392.152 43.3522 392.352 42.5518 392.218 41.6181C392.129 40.6843 391.906 39.7506 391.55 38.8169L389.543 33.4145L373.155 33.8147L371.215 39.6172C370.948 40.5065 370.658 41.3513 370.346 42.1516C370.033 42.952 369.721 43.7301 369.409 44.486C370.212 44.397 371.059 44.3526 371.951 44.3526C372.887 44.3081 373.712 44.2637 374.426 44.2192V47.9541H361.316ZM374.359 30.2131H388.406L384.192 18.9416C383.657 17.4743 383.144 16.0292 382.653 14.6063C382.163 13.139 381.717 11.7384 381.315 10.4045H381.249C380.892 11.5161 380.49 12.7389 380.045 14.0728C379.599 15.4067 379.086 16.8518 378.506 18.408L374.359 30.2131Z" fill="white"/>
<path d="M425.444 47.9541V45.0195C426.916 44.9306 427.964 44.6194 428.588 44.0858C429.212 43.5522 429.614 42.7519 429.792 41.6848C429.97 40.5732 430.059 39.217 430.059 37.6163L430.126 30.6133L418.22 11.9385C417.284 10.3823 416.526 9.00391 415.946 7.80339C415.411 6.60287 415.099 5.60243 415.009 4.80209C414.296 4.84655 413.627 4.86878 413.003 4.86878C412.378 4.86878 411.754 4.89101 411.13 4.93548V1.26722H429.19V4.20183C427.406 4.15736 426.091 4.40191 425.243 4.93548C424.441 5.46904 424.084 6.24716 424.173 7.26982C424.262 8.24803 424.708 9.40408 425.511 10.738L430.795 19.1416C431.152 19.6752 431.553 20.2977 431.999 21.0091C432.445 21.7205 432.891 22.4542 433.337 23.2101C433.828 23.9215 434.273 24.6551 434.675 25.411H434.809C435.21 24.5662 435.656 23.6769 436.146 22.7432C436.681 21.765 437.217 20.6979 437.752 19.5418L442.702 10.1377C442.925 9.6931 443.214 9.1373 443.571 8.47035C443.928 7.80339 444.307 7.13643 444.708 6.46948C445.154 5.75806 445.6 5.18003 446.046 4.73539C445.243 4.77986 444.351 4.82432 443.37 4.86878C442.434 4.86878 441.587 4.89101 440.829 4.93548V1.26722H454.809V4.20183C452.846 4.37968 451.197 5.11333 449.859 6.40278C448.566 7.64777 447.183 9.6264 445.712 12.3387C444.24 15.1399 442.791 17.8967 441.364 20.6089C439.937 23.2768 438.554 25.9001 437.217 28.479C437.217 29.1905 437.194 30.102 437.15 31.2135C437.15 32.3251 437.15 33.4367 437.15 34.5483C437.15 35.6599 437.15 36.6381 437.15 37.4829C437.15 38.2833 437.15 38.7946 437.15 39.0169C437.15 40.2175 437.127 41.3068 437.083 42.285C437.083 43.2188 437.038 43.9746 436.949 44.5527C437.841 44.4637 438.777 44.4193 439.758 44.4193C440.784 44.3748 441.676 44.3304 442.434 44.2859V47.9541H425.444Z" fill="white"/>
<path fill-rule="evenodd" clip-rule="evenodd" d="M454.808 76.2553H0V73.5319H454.808V76.2553Z" fill="white"/>
</svg>
